<?xml version="1.0" encoding="UTF-8"?>
<!--Generator: Apple Native CoreSVG 341-->
<!DOCTYPE svg
PUBLIC "-//W3C//DTD SVG 1.1//EN"
       "http://www.w3.org/Graphics/SVG/1.1/DTD/svg11.dtd">
<svg version="1.1" xmlns="http://www.w3.org/2000/svg" xmlns:xlink="http://www.w3.org/1999/xlink" viewBox="0 0 962.402 813.574">
 <g>
  <path d="M0 377.637C0 508.887 89.9414 595.898 225.293 595.898C358.008 595.898 447.07 517.969 447.07 401.074C447.07 352.441 429.199 311.426 400.781 286.816C389.355 277.148 382.324 273.926 371.191 273.926C356.25 273.926 346.289 283.301 346.289 296.484C346.289 312.012 354.785 316.406 369.141 329.59C386.426 346.289 396.094 371.191 396.094 400.195C396.094 486.328 327.832 544.336 226.172 544.336C121.289 544.336 51.8555 477.539 51.8555 377.051C51.8555 319.922 81.1523 264.258 128.32 232.91L103.711 187.5C39.5508 227.344 0 301.172 0 377.637ZM96.3867 185.742C96.3867 264.551 150.879 323.73 241.113 323.73C255.176 323.73 266.895 311.719 266.895 297.656C266.895 283.594 255.176 271.582 241.113 271.582C182.52 271.582 148.242 234.082 148.242 185.742C148.242 132.715 191.309 91.6992 254.004 91.6992C280.957 91.6992 309.668 99.6094 336.035 116.895L366.211 74.4141C330.762 50.6836 292.09 39.5508 254.59 39.5508C163.477 39.5508 96.3867 102.246 96.3867 185.742ZM291.797 175.195C291.211 192.188 302.637 203.32 317.578 203.32C331.641 203.32 342.48 193.945 343.066 177.539C345.996 104.883 399.023 51.5625 473.438 51.5625C517.09 51.5625 555.762 73.8281 570.996 111.035C573.34 116.309 577.441 116.602 584.18 114.844C597.949 110.449 612.598 108.105 627.246 108.398C696.387 108.984 757.324 160.547 757.324 241.406C757.324 412.793 511.816 394.629 511.816 562.5C511.816 640.723 572.754 689.355 655.664 689.355C663.867 689.355 673.828 688.77 683.496 688.477C691.406 754.102 730.371 812.988 792.188 812.988C880.664 812.988 924.609 704.004 924.609 587.988C924.609 544.922 922.266 514.453 919.336 485.449L867.188 500.684C870.41 529.395 873.047 555.469 873.047 587.402C873.047 685.254 839.648 761.133 792.188 761.133C746.484 761.133 725.684 702.832 725.684 649.219C725.684 645.117 723.633 642.773 718.359 642.773C708.691 643.066 691.992 643.359 683.203 643.359C611.133 643.359 563.672 618.457 563.672 561.621C563.672 425.098 809.18 448.242 809.18 241.406C809.18 130.371 729.199 56.543 633.398 56.543C624.316 56.25 612.305 58.0078 600.293 60.9375C572.168 22.5586 525 0 473.73 0C370.312 0 296.484 72.0703 291.797 175.195ZM730.664 535.547C730.664 549.902 742.09 560.449 756.738 561.328C880.078 567.773 962.402 494.824 962.402 379.102C962.402 281.543 892.969 208.008 789.258 195.703L781.641 247.559C858.984 249.023 910.547 301.465 910.547 379.102C910.547 462.891 848.73 515.332 756.738 509.766C742.09 508.594 730.664 521.191 730.664 535.547ZM535.84 587.988C514.453 595.605 488.086 599.121 464.355 599.121C403.418 599.121 339.844 575.684 314.062 536.719L270.996 571.875C309.961 619.922 378.516 650.977 459.375 650.977C487.793 650.977 521.191 646.875 553.125 637.793ZM414.844 332.812L432.129 382.031C522.656 363.867 564.551 307.617 564.258 221.777C564.258 207.715 552.539 195.996 538.184 195.996C524.121 195.996 512.402 207.715 512.402 221.777C512.402 285.059 484.863 322.266 414.844 332.812Z" fill="white" fill-opacity="0.85"/>
 </g>
</svg>
